<?xml version="1.0" standalone="no"?>
<!DOCTYPE svg PUBLIC "-//W3C//DTD SVG 20010904//EN"
 "http://www.w3.org/TR/2001/REC-SVG-20010904/DTD/svg10.dtd">
<svg version="1.0" xmlns="http://www.w3.org/2000/svg"
 width="609.000000pt" height="695.000000pt" viewBox="0 0 609.000000 695.000000"
 preserveAspectRatio="xMidYMid meet">

<g transform="translate(0.000000,695.000000) scale(0.100000,-0.100000)"
fill="#000000" stroke="none">
<path d="M2495 6255 c-22 -13 -46 -29 -52 -35 -26 -23 -158 -80 -186 -80 -15
0 -51 -12 -80 -26 -54 -28 -288 -173 -297 -185 -3 -4 -45 -30 -95 -59 -179
-106 -308 -204 -433 -332 -117 -119 -162 -170 -162 -182 0 -3 -49 -69 -110
-146 -61 -77 -110 -143 -110 -146 0 -3 -28 -41 -63 -86 -174 -225 -317 -433
-420 -615 -48 -84 -87 -155 -87 -159 0 -3 -34 -65 -75 -138 -40 -72 -77 -141
-81 -151 -4 -11 -33 -65 -64 -120 -76 -132 -160 -293 -160 -304 0 -5 30 -30
68 -55 37 -24 90 -66 117 -91 28 -26 84 -73 126 -105 42 -33 83 -65 90 -72 8
-7 46 -38 84 -67 39 -30 72 -58 73 -63 2 -4 31 -29 65 -56 116 -88 232 -194
315 -285 93 -103 111 -116 165 -117 32 0 45 7 85 48 26 26 56 65 65 87 26 59
32 68 45 73 14 4 15 -43 12 -1460 l-2 -1038 27 -10 c19 -7 53 -7 114 1 104 14
265 7 416 -18 101 -16 188 -18 1020 -18 501 0 984 4 1075 8 205 10 430 26 451
32 9 3 74 9 144 13 118 8 130 10 149 33 l21 24 3 1170 c1 644 3 1190 3 1215 0
51 -6 55 69 -46 19 -25 49 -53 66 -62 30 -14 37 -14 76 2 26 10 77 49 128 97
109 103 194 172 300 244 47 32 87 61 90 65 3 3 28 21 55 40 28 18 75 52 105
76 30 23 102 70 160 104 58 35 107 66 110 70 3 4 35 21 72 39 98 46 100 55 39
158 -28 46 -51 87 -51 90 0 3 -28 51 -63 107 -35 55 -77 126 -94 156 -17 30
-67 115 -112 189 -44 73 -81 135 -81 136 0 5 -91 158 -110 185 -10 14 -31 50
-47 80 -17 30 -62 108 -102 173 -39 65 -71 120 -71 123 0 17 -81 127 -150 203
-44 49 -80 92 -80 96 0 6 -289 342 -334 388 -196 198 -338 305 -551 417 -55
29 -102 55 -105 59 -3 4 -84 44 -180 90 -268 127 -340 164 -367 189 -50 46
-71 55 -101 44 -15 -6 -42 -14 -59 -17 -18 -4 -33 -10 -33 -14 0 -4 -42 -13
-92 -19 -102 -13 -427 0 -437 17 -4 5 -39 13 -79 16 -40 4 -90 16 -110 26 -46
24 -67 23 -117 -6z m749 -3755 c33 0 86 -26 86 -43 1 -15 30 -49 55 -63 32
-17 64 -93 71 -170 6 -64 4 -74 -19 -110 -37 -60 -93 -105 -120 -99 -17 5 -28
-1 -45 -25 l-23 -30 26 -10 c15 -6 32 -10 40 -10 14 0 65 -55 65 -71 0 -8 38
-108 122 -322 6 -15 27 -39 48 -55 20 -15 70 -57 111 -94 118 -106 121 -108
150 -108 15 0 34 7 43 15 16 17 66 21 66 5 0 -5 14 -10 30 -10 17 0 30 -4 30
-10 0 -5 -13 -10 -30 -10 -23 0 -30 -5 -30 -19 0 -11 9 -23 20 -26 24 -8 25
-22 3 -47 -22 -24 -79 -23 -123 2 -19 10 -78 40 -130 66 -52 25 -97 49 -100
53 -3 4 -32 24 -65 44 -55 32 -67 46 -123 140 -34 57 -62 109 -62 114 0 13
-39 63 -49 63 -4 0 -16 -19 -26 -42 -10 -24 -33 -68 -51 -98 -23 -39 -36 -76
-43 -127 -11 -84 -5 -118 42 -235 50 -123 57 -181 61 -530 l5 -317 -62 -5
c-34 -4 -133 -5 -220 -4 -126 2 -160 6 -167 18 -18 30 -70 208 -86 295 -10 54
-18 159 -20 264 l-2 175 34 90 c33 90 40 116 28 116 -20 0 -105 -92 -198 -217
-34 -45 -112 -113 -130 -113 -12 0 -5 16 19 42 14 15 25 31 25 35 0 5 12 17
27 28 14 11 59 70 99 130 41 61 91 135 112 165 21 30 49 84 62 120 13 36 29
70 36 75 7 6 14 19 16 30 2 16 12 21 46 23 51 4 57 28 12 54 -17 9 -30 24 -30
33 0 8 -4 15 -9 15 -13 0 -19 33 -10 58 9 24 40 29 83 13 32 -13 56 10 36 34
-7 8 -19 15 -26 15 -22 0 -16 16 13 35 67 44 113 121 113 189 0 48 -6 56 -53
65 -24 5 -33 15 -46 49 -11 30 -24 46 -48 57 -18 9 -33 22 -33 30 0 8 -4 15
-9 15 -5 0 -11 8 -15 18 -3 9 -11 25 -18 35 -15 21 -18 18 97 87 41 25 77 52
80 61 4 12 23 19 63 23 84 10 95 15 89 38 -5 18 -4 19 12 4 10 -9 30 -16 45
-16z m781 -1300 c-25 -11 -55 -12 -55 -2 0 4 17 8 38 9 28 1 32 0 17 -7z"/>
<path d="M3184 2472 c-13 -9 -17 -59 -6 -79 6 -10 12 -3 22 27 13 41 6 67 -16
52z"/>
<path d="M3065 2402 c-2 -2 -25 -6 -51 -10 -37 -5 -50 -12 -52 -26 -3 -16 0
-18 19 -11 13 4 39 9 57 12 17 3 32 9 32 14 0 5 16 9 36 9 20 0 33 4 29 10 -5
8 -62 10 -70 2z"/>
<path d="M3235 2007 c-4 -10 -5 -21 -1 -24 10 -10 18 4 13 24 -4 17 -4 17 -12
0z"/>
</g>
</svg>
