<?xml version="1.0" standalone="no"?>
<!DOCTYPE svg PUBLIC "-//W3C//DTD SVG 20010904//EN"
 "http://www.w3.org/TR/2001/REC-SVG-20010904/DTD/svg10.dtd">
<svg version="1.0" xmlns="http://www.w3.org/2000/svg"
 width="525.000000pt" height="125.000000pt" viewBox="0 0 525.000000 125.000000"
 preserveAspectRatio="xMidYMid meet">

<g transform="translate(0.000000,125.000000) scale(0.100000,-0.100000)"
fill="#000000" stroke="none">
<path d="M50 620 l0 -340 95 0 95 0 0 340 0 340 -95 0 -95 0 0 -340z"/>
<path d="M4476 815 l-58 -145 -184 -2 -183 -3 141 -80 c77 -44 142 -85 145
-91 2 -5 -21 -70 -52 -144 -30 -73 -54 -134 -52 -136 1 -1 70 29 153 67 l152
69 151 -69 c83 -38 151 -66 151 -62 0 4 -25 67 -55 140 -30 73 -55 134 -55
136 0 2 66 41 148 86 l147 84 -185 5 -185 5 -50 120 c-27 67 -54 131 -60 142
-9 19 -18 2 -69 -122z"/>
<path d="M2420 850 l-12 -80 -59 0 -59 0 0 -60 0 -60 55 0 55 0 0 -107 c0 -60
5 -125 9 -147 22 -93 110 -132 277 -123 56 2 107 8 113 11 6 4 11 33 11 65 l0
57 -89 -4 c-80 -4 -91 -2 -110 17 -19 19 -21 32 -21 126 l0 105 105 0 105 0 0
60 0 60 -105 0 -105 0 0 80 0 80 -79 0 -79 0 -12 -80z"/>
<path d="M1871 779 c-80 -10 -161 -49 -184 -88 -26 -44 -22 -113 8 -150 33
-39 91 -57 245 -76 145 -18 150 -19 150 -39 0 -28 -39 -38 -140 -34 -88 3
-101 6 -125 28 l-26 24 -70 -24 c-39 -14 -73 -28 -75 -32 -10 -16 51 -69 104
-89 79 -30 252 -38 342 -15 111 29 160 77 160 158 0 92 -49 120 -261 148 -152
20 -185 33 -153 57 42 31 172 27 232 -8 33 -19 36 -19 95 -3 34 9 66 21 71 25
6 5 -7 25 -31 47 -63 60 -203 89 -342 71z"/>
<path d="M3084 780 c-77 -11 -122 -29 -160 -63 -34 -29 -70 -84 -61 -93 2 -3
42 -7 89 -11 82 -6 85 -5 111 21 23 23 34 26 92 26 52 0 69 -4 85 -20 39 -39
28 -46 -103 -59 -143 -13 -182 -23 -228 -54 -66 -44 -76 -142 -20 -198 61 -61
247 -78 341 -31 39 19 40 19 40 1 0 -17 9 -19 89 -19 l88 0 -4 168 c-5 213 -7
222 -46 259 -46 44 -86 61 -164 73 -75 11 -77 11 -149 0z m176 -315 c0 -57
-95 -99 -179 -80 -36 8 -50 40 -27 63 13 13 106 33 194 41 7 0 12 -10 12 -24z"/>
<path d="M3880 783 c-52 -9 -96 -26 -127 -50 l-33 -24 0 30 0 31 -90 0 -90 0
0 -245 0 -245 95 0 95 0 0 146 c0 85 4 154 11 166 17 31 71 48 154 48 l75 0 0
70 c0 49 -4 70 -12 70 -7 0 -22 2 -33 4 -11 2 -31 2 -45 -1z"/>
<path d="M330 604 c0 -98 5 -183 12 -206 15 -49 74 -103 130 -119 60 -16 177
-7 227 18 40 20 41 20 41 2 0 -17 9 -19 95 -19 l95 0 0 245 0 245 -94 0 -95 0
-3 -161 -3 -161 -28 -24 c-37 -31 -122 -34 -158 -5 -23 19 -24 25 -27 185 l-3
166 -95 0 -94 0 0 -166z"/>
<path d="M980 765 c0 -3 54 -113 120 -245 l120 -240 98 0 97 0 123 245 122
246 -96 -3 -96 -3 -70 -152 c-39 -84 -74 -153 -77 -153 -3 1 -38 69 -76 153
l-71 152 -97 3 c-53 1 -97 0 -97 -3z"/>
</g>
</svg>
