<?xml version="1.0" standalone="no"?>
<!DOCTYPE svg PUBLIC "-//W3C//DTD SVG 20010904//EN"
 "http://www.w3.org/TR/2001/REC-SVG-20010904/DTD/svg10.dtd">
<svg version="1.0" xmlns="http://www.w3.org/2000/svg"
 width="1000.000000pt" height="500.000000pt" viewBox="0 0 1000.000000 500.000000"
 preserveAspectRatio="xMidYMid meet">

<g transform="translate(0.000000,500.000000) scale(0.100000,-0.100000)"
fill="#000000" stroke="none">
<path d="M370 2565 l0 -825 225 0 225 0 0 825 0 825 -225 0 -225 0 0 -825z"/>
<path d="M6111 3223 c-6 -43 -19 -126 -27 -185 l-17 -108 -148 0 -149 0 0
-145 0 -145 145 0 145 0 0 -292 c0 -371 8 -407 109 -502 103 -96 224 -129 471
-129 147 -1 308 16 383 39 15 5 17 21 17 150 0 79 -4 144 -8 144 -4 0 -59 -7
-122 -16 -127 -18 -257 -14 -311 9 -19 8 -45 27 -59 41 l-25 28 -3 264 -3 264
251 0 250 0 0 145 0 145 -250 0 -250 0 0 185 0 185 -194 0 -194 0 -11 -77z"/>
<path d="M7906 3212 c-3 -5 -58 -113 -122 -238 -64 -126 -121 -234 -128 -241
-10 -11 -90 -42 -306 -118 -147 -52 -195 -72 -192 -81 2 -9 61 -47 157 -101
84 -48 99 -58 112 -70 7 -6 18 -13 24 -15 10 -3 -64 -154 -308 -626 -40 -79
-67 -140 -59 -135 8 4 32 24 53 43 21 19 85 75 143 125 58 49 107 92 110 95 3
3 68 59 145 125 77 66 142 122 145 125 3 3 22 20 42 38 l36 34 28 -18 c16 -10
31 -21 34 -25 3 -3 15 -9 28 -13 12 -4 22 -12 22 -17 0 -5 4 -9 9 -9 5 0 59
-30 120 -67 61 -38 128 -77 149 -89 20 -12 87 -51 147 -89 61 -37 129 -78 153
-91 23 -13 54 -31 67 -40 14 -9 25 -13 25 -8 0 8 -51 134 -160 394 -186 443
-182 433 -170 454 6 12 28 35 49 51 21 17 154 131 296 255 142 124 277 241
301 260 53 43 55 54 7 35 -85 -32 -769 -273 -787 -277 -16 -2 -30 24 -91 171
-40 95 -75 169 -79 163z"/>
<path d="M4765 2949 c-247 -31 -401 -114 -464 -248 -22 -48 -26 -69 -26 -146
1 -103 17 -145 82 -207 85 -83 201 -114 593 -163 157 -19 298 -40 313 -47 56
-22 59 -76 6 -103 -47 -25 -182 -38 -333 -33 -172 6 -235 26 -301 94 l-42 44
-177 -64 c-97 -35 -179 -66 -182 -69 -11 -11 27 -66 81 -115 103 -94 263 -150
496 -173 335 -32 652 34 800 168 115 104 133 334 34 436 -82 84 -172 114 -467
152 -455 60 -460 60 -485 90 -30 35 -18 58 44 82 41 15 78 18 238 18 177 0
193 -2 241 -23 29 -13 64 -37 80 -53 15 -16 33 -29 38 -29 11 0 348 91 354 96
9 6 -62 96 -109 138 -89 80 -230 133 -419 156 -99 12 -295 11 -395 -1z"/>
<path d="M9495 2945 c-115 -25 -216 -76 -274 -139 -14 -14 -28 -26 -33 -26 -4
0 -8 34 -8 75 l0 75 -220 0 -220 0 0 -595 0 -595 224 0 225 0 3 343 c3 330 4
343 25 383 32 60 84 100 160 125 57 18 92 21 214 21 81 0 156 -3 168 -7 21 -6
21 -5 21 168 l0 175 -31 6 c-52 10 -190 5 -254 -9z"/>
<path d="M1050 2535 c0 -436 3 -472 52 -569 81 -160 256 -246 503 -246 168 0
313 38 402 106 l32 24 3 -52 3 -53 220 0 220 0 3 598 2 597 -224 0 -224 0 -4
-357 c-5 -400 -8 -419 -74 -486 -45 -44 -106 -62 -214 -62 -141 0 -215 51
-239 166 -7 30 -11 187 -11 394 l0 345 -225 0 -225 0 0 -405z"/>
<path d="M2910 2340 l300 -600 230 0 230 0 300 600 300 600 -231 -2 -231 -3
-179 -384 c-98 -211 -180 -385 -182 -387 -2 -3 -44 80 -92 183 -48 104 -130
279 -183 391 l-95 202 -233 0 -234 0 300 -600z"/>
</g>
</svg>
